<svg version="1.1" width="64" height="64" viewBox="0.0 0.0 512.0 512.0" fill="none" stroke="none" stroke-linecap="square" stroke-miterlimit="10" xmlns:xlink="http://www.w3.org/1999/xlink" xmlns="http://www.w3.org/2000/svg"><clipPath id="p.0"><path d="m0 0l512.0 0l0 512.0l-512.0 0l0 -512.0z" clip-rule="nonzero"/></clipPath><g clip-path="url(#p.0)"><path fill="#000000" fill-opacity="0.0" d="m0 0l512.0 0l0 512.0l-512.0 0z" fill-rule="evenodd"/><path fill="#000000" d="m50.241154 29.866491l0 362.98608l205.75912 91.11514l0 -455.5697z" fill-rule="evenodd"/><path fill="#000000" d="m461.7594 29.500116l0 362.98608l-205.75912 91.11514l0 -455.56973z" fill-rule="evenodd"/><defs><linearGradient id="p.1" gradientUnits="userSpaceOnUse" gradientTransform="matrix(20.756273966683345 0.0 0.0 20.756273966683345 0.0 0.0)" spreadMethod="pad" x1="2.9593628226360624" y1="1.8891672484725897" x2="2.9592877417736383" y2="22.645441215020142"><stop offset="0.0" stop-color="#f2f2f2"/><stop offset="1.0" stop-color="#a6a6a6"/></linearGradient></defs><path fill="url(#p.1)" d="m61.42535 40.601494l0 343.2679l194.56477 86.16559l0 -430.82224z" fill-rule="evenodd"/><defs><linearGradient id="p.2" gradientUnits="userSpaceOnUse" gradientTransform="matrix(-20.75627433714812 0.0 0.0 20.75627433714812 0.0 0.0)" spreadMethod="pad" x1="-21.706926095661167" y1="1.8724748129182844" x2="-21.70700117652225" y2="22.628749149930613"><stop offset="0.0" stop-color="#8c8c8c"/><stop offset="1.0" stop-color="#404040"/></linearGradient></defs><path fill="url(#p.2)" d="m450.5549 40.25502l0 343.26794l-194.56477 86.16556l0 -430.8222z" fill-rule="evenodd"/><defs><radialGradient id="p.3" gradientUnits="userSpaceOnUse" gradientTransform="matrix(9.534994385131562 -9.537329676374325 9.537329676374325 9.534994385131562 0.0 0.0)" spreadMethod="pad" cx="0.07837535050977182" cy="26.763276599357678" fx="0.07837535050977182" fy="26.763276599357678" r="9.53732967376709"><stop offset="0.0" stop-color="#bfbfbf"/><stop offset="1.0" stop-color="#737373"/></radialGradient></defs><path fill="url(#p.3)" d="m191.69041 318.76303l0 0c-35.511475 -35.520172 -35.511475 -93.10974 0 -128.62991q32.149612 -32.157486 64.29921 -64.314964q32.149597 32.15748 64.299225 64.314964l0 0c35.511475 35.520172 35.511475 93.10974 0 128.62991l0 0c-35.511475 35.520172 -93.08696 35.520172 -128.59843 0z" fill-rule="evenodd"/></g></svg>